<svg xmlns="http://www.w3.org/2000/svg" viewBox="0 0 24 24" fill="{{ .fill }}" width="{{ .width }}" height="{{ .height }}">
    <path d="M5.721 0C2.251 0 0 2.25 0 5.719V18.28C0 21.751 2.252 24 5.721 24h12.56C21.751 24 24 21.75 24 18.281V5.72C24 2.249 21.75 0 18.281 0zm1.964 4.078c-.271.73-.5 1.434-.68 2.11h4.587l-.645-2.11zm10.308 2.11h-3.506c.127-.61.32-1.316.588-2.11l-1.64-.003c-.315.816-.54 1.51-.676 2.113H8.852v1.07h3.505c-.014.31-.037.617-.07.921-.09.804-.244 1.54-.46 2.21-.276.84-.627 1.595-1.054 2.261-.43.666-.92 1.235-1.472 1.707-.553.472-1.164.85-1.833 1.135L8.731 20.81c.872-.356 1.653-.822 2.342-1.398.69-.576 1.286-1.243 1.79-1.998a9.034 9.034 0 001.227-2.528c.309-.97.508-2.017.597-3.142h3.506v-1.07h-3.506c.014-.31.037-.617.07-.921.09-.804.244-1.54.46-2.21.276-.84.627-1.595 1.054-2.261.43-.666.92-1.235 1.472-1.707.553-.472 1.164-.85 1.833-1.135l-1.263-4.328c-.872.356-1.653.822-2.342 1.398-.69.576-1.286 1.243-1.79 1.998a9.034 9.034 0 00-1.227 2.528c-.309.97-.508 2.017-.597 3.142zM8.852 9.86v1.07h3.506v-1.07H8.852z"/>
</svg>
